<svg width="100" height="100" viewBox="0 0 100 100" fill="none" xmlns="http://www.w3.org/2000/svg">
<g id="slack">
<g id="slack_2">
<path id="Vector" fill-rule="evenodd" clip-rule="evenodd" d="M36.5912 -0.0012207C31.0744 0.00285677 26.6096 4.47992 26.6137 9.99673C26.6096 15.5136 31.0785 19.9906 36.5953 19.9947H46.5769V10.0008C46.581 4.484 42.1121 0.00693424 36.5912 -0.0012207C36.5953 -0.0012207 36.5953 -0.0012207 36.5912 -0.0012207ZM36.5912 26.6654H9.98166C4.46484 26.6695 -0.00406633 31.1466 1.11432e-05 36.6634C-0.0081438 42.1802 4.46076 46.6573 9.97758 46.6654H36.5912C42.108 46.6613 46.5769 42.1843 46.5729 36.6675C46.5769 31.1466 42.108 26.6695 36.5912 26.6654Z" fill="#36C5F0"/>
<path id="Vector_2" fill-rule="evenodd" clip-rule="evenodd" d="M99.8002 36.6634C99.8042 31.1466 95.3353 26.6695 89.8185 26.6654C84.3017 26.6695 79.8328 31.1466 79.8369 36.6634V46.6654H89.8185C95.3353 46.6613 99.8042 42.1843 99.8002 36.6634ZM73.1865 36.6634V9.99673C73.1906 4.484 68.7258 0.00693424 63.2089 -0.0012207C57.6921 0.00285677 53.2232 4.47992 53.2273 9.99673V36.6634C53.2192 42.1802 57.6881 46.6573 63.2049 46.6654C68.7217 46.6613 73.1906 42.1843 73.1865 36.6634Z" fill="#2EB67D"/>
<path id="Vector_3" fill-rule="evenodd" clip-rule="evenodd" d="M63.205 99.9988C68.7219 99.9948 73.1908 95.5177 73.1867 90.0009C73.1908 84.4841 68.7219 80.007 63.205 80.0029H53.2234V90.0009C53.2193 95.5136 57.6882 99.9907 63.205 99.9988ZM63.205 73.3281H89.8187C95.3355 73.324 99.8044 68.847 99.8003 63.3302C99.8085 57.8133 95.3396 53.3363 89.8228 53.3281H63.2091C57.6923 53.3322 53.2234 57.8093 53.2275 63.3261C53.2234 68.847 57.6882 73.324 63.205 73.3281Z" fill="#ECB22E"/>
<path id="Vector_4" fill-rule="evenodd" clip-rule="evenodd" d="M0.000246929 63.33C-0.00383054 68.8468 4.46508 73.3239 9.98189 73.3279C15.4987 73.3239 19.9676 68.8468 19.9635 63.33V53.332H9.98189C4.46508 53.3361 -0.00383054 57.8132 0.000246929 63.33ZM26.6139 63.33V89.9966C26.6057 95.5135 31.0746 99.9905 36.5915 99.9987C42.1083 99.9946 46.5772 95.5175 46.5731 90.0007V63.3381C46.5813 57.8213 42.1124 53.3443 36.5955 53.3361C31.0746 53.3361 26.6098 57.8132 26.6139 63.33Z" fill="#E01E5A"/>
</g>
</g>
</svg>
